# This file uses centimeters as units for non-parametric coordinates.

mtllib wall4.mtl
g default
v -106.277221 115.103024 106.560542
v 105.450888 115.103024 106.560542
v -106.277221 115.103024 -106.560542
v 105.450888 115.103024 -106.560542
v -106.277221 115.103024 42.176449
v 105.450888 115.103024 42.176449
v -106.277221 115.103024 -9.231367
v 105.450888 115.103024 -9.231367
v -37.378349 115.103024 106.560542
v -37.378349 115.103024 42.176446
v -37.378349 115.103024 -9.231367
v -37.378349 115.103024 -106.560542
v -99.690002 115.103024 106.560542
v -99.690002 115.103024 42.176446
v -99.690002 115.103024 -9.231367
v -99.690002 115.103024 -106.560542
vt 0.000000 0.000000
vt 1.000000 0.000000
vt 0.000000 1.000000
vt 1.000000 1.000000
vt 0.000000 0.302101
vt 1.000000 0.302101
vt 0.000000 0.543315
vt 1.000000 0.543315
vt 0.325412 0.000000
vt 0.325412 0.302101
vt 0.325412 0.543315
vt 0.325412 1.000000
vt 0.031112 0.000000
vt 0.031112 0.302101
vt 0.031112 0.543315
vt 0.031112 1.000000
vn -0.000000 1.000000 0.000000
vn -0.000000 1.000000 0.000000
vn 0.000000 1.000000 0.000000
vn 0.000000 1.000000 0.000000
vn 0.000000 1.000000 0.000000
vn 0.000000 1.000000 0.000000
vn -0.000000 1.000000 0.000000
vn -0.000000 1.000000 0.000000
vn -0.000000 1.000000 0.000000
vn -0.000000 1.000000 0.000000
vn -0.000000 1.000000 0.000000
vn -0.000000 1.000000 0.000000
vn 0.000000 1.000000 0.000000
vn 0.000000 1.000000 0.000000
vn 0.000000 1.000000 0.000000
vn 0.000000 1.000000 0.000000
s 1
g pPlane3
usemtl initialShadingGroup
f 7/7/1 15/15/2 16/16/3 3/3/4
f 1/1/5 13/13/6 14/14/7 5/5/8
f 5/5/8 14/14/7 15/15/2 7/7/1
f 10/10/9 9/9/10 2/2/11 6/6/12
f 11/11/13 10/10/9 6/6/12 8/8/14
f 12/12/15 11/11/13 8/8/14 4/4/16
f 14/14/7 13/13/6 9/9/10 10/10/9
f 16/16/3 15/15/2 11/11/13 12/12/15
