# This file uses centimeters as units for non-parametric coordinates.

mtllib wall3.mtl
g default
v 99.378563 2.800920 113.281633
v 99.378563 105.587080 113.281633
v 99.378563 2.800920 -109.535953
v 99.378563 105.587080 -109.535953
v 99.378563 2.800920 54.508816
v 99.378563 105.587080 54.508816
v 99.378563 2.800920 94.987000
v 99.378563 105.587080 94.987000
v 99.378563 89.073869 113.281633
v 99.378563 89.073869 94.987000
v 99.378563 89.073869 54.508816
v 99.378563 89.073869 -109.535953
v 99.378563 54.430277 113.281633
v 99.378563 54.430277 94.987000
v 99.378563 54.430277 54.508816
v 99.378563 54.430277 -109.535953
vt 0.000000 0.000000
vt 1.000000 0.000000
vt 0.000000 1.000000
vt 1.000000 1.000000
vt 0.000000 0.263771
vt 1.000000 0.263771
vt 0.000000 0.082106
vt 1.000000 0.082106
vt 0.839344 0.000000
vt 0.839344 0.082106
vt 0.839344 0.263771
vt 0.839344 1.000000
vt 0.502299 0.000000
vt 0.502299 0.082106
vt 0.502299 0.263771
vt 0.502299 1.000000
vn -1.000000 0.000000 0.000000
vn -1.000000 0.000000 0.000000
vn -1.000000 0.000000 0.000000
vn -1.000000 0.000000 0.000000
vn -1.000000 0.000000 0.000000
vn -1.000000 0.000000 0.000000
vn -1.000000 0.000000 0.000000
vn -1.000000 0.000000 0.000000
vn -1.000000 0.000000 0.000000
vn -1.000000 0.000000 0.000000
vn -1.000000 0.000000 0.000000
vn -1.000000 0.000000 0.000000
vn -1.000000 0.000000 0.000000
vn -1.000000 0.000000 0.000000
vn -1.000000 0.000000 0.000000
vn -1.000000 0.000000 0.000000
s 1
g pPlane2
usemtl initialShadingGroup
f 5/5/1 15/15/2 16/16/3 3/3/4
f 7/7/5 14/14/6 15/15/2 5/5/1
f 1/1/7 13/13/8 14/14/6 7/7/5
f 10/10/9 9/9/10 2/2/11 8/8/12
f 11/11/13 10/10/9 8/8/12 6/6/14
f 12/12/15 11/11/13 6/6/14 4/4/16
f 14/14/6 13/13/8 9/9/10 10/10/9
f 16/16/3 15/15/2 11/11/13 12/12/15
